<?xml version="1.0" encoding="UTF-8" standalone="no"?>
<!-- Created with Inkscape (http://www.inkscape.org/) -->
<svg
   xmlns:svg="http://www.w3.org/2000/svg"
   xmlns="http://www.w3.org/2000/svg"
   id="svg2"
   viewBox="0 0 1 1"
   height="168.66000"
   width="540.00000"
   y="0.0000000"
   x="0.0000000"
   version="1.0">
  <defs
     id="defs27" />
  <title
     id="title4">SVG drawing</title>
  <desc
     id="desc6">This was produced by version 4.1 of GNU libplot, a free library for exporting 2-D vector graphics.</desc>
  <g
     id="g1327"
     transform="matrix(9.716656,0.000000,0.000000,9.716656,-1.412595,-7.316216)">
    <polygon
       id="polygon14"
       style="font-style:normal;font-variant:normal;font-weight:normal;font-stretch:normal;fill:#000000;fill-opacity:1.0000000;stroke:#000000;stroke-width:0.0000000;stroke-linecap:butt;stroke-linejoin:miter;stroke-miterlimit:10.433000;stroke-dashoffset:0.0000000;stroke-opacity:1.0000000;letter-spacing:normal;text-anchor:start"
       transform="matrix(1.736100e-3,0.000000,0.000000,-1.736100e-3,2.952348e-2,0.974793)"
       points="20.913000,98.831000 14.564000,92.193000 14.564000,76.610000 8.5039000,76.610000 8.5039000,121.92000 14.564000,121.92000 14.564000,99.697000 36.208000,121.92000 43.423000,121.92000 25.242000,103.16000 44.289000,76.610000 37.074000,76.610000 20.913000,98.831000 " />
    <polygon
       id="polygon16"
       style="font-style:normal;font-variant:normal;font-weight:normal;font-stretch:normal;fill:#000000;fill-opacity:1.0000000;stroke:#000000;stroke-width:0.0000000;stroke-linecap:butt;stroke-linejoin:miter;stroke-miterlimit:10.433000;stroke-dashoffset:0.0000000;stroke-opacity:1.0000000;letter-spacing:normal;text-anchor:start"
       transform="matrix(1.736100e-3,0.000000,0.000000,-1.736100e-3,2.952348e-2,0.974793)"
       points="106.91000,97.100000 106.91000,82.093000 133.17000,82.093000 133.17000,76.610000 100.85000,76.610000 100.85000,121.92000 132.31000,121.92000 132.31000,116.43000 106.91000,116.43000 106.91000,102.58000 129.13000,102.58000 129.13000,97.100000 106.91000,97.100000 " />
    <path
       id="path18"
       style="font-style:normal;font-variant:normal;font-weight:normal;font-stretch:normal;fill:#000000;fill-opacity:1.0000000;stroke:#000000;stroke-width:0.0000000;stroke-linecap:butt;stroke-linejoin:miter;stroke-miterlimit:10.433000;stroke-dashoffset:0.0000000;stroke-opacity:1.0000000;letter-spacing:normal;text-anchor:start"
       transform="scale(1.388889e-3,1.388889e-3)"
       d="M 105.84375,548.71875 C 89.971349,548.71876 76.968750,561.71635 76.968750,577.59375 C 76.968751,593.82617 89.971350,606.81250 105.84375,606.81250 C 110.89371,606.81252 115.57628,605.35249 119.90625,603.18750 L 128.93750,614.03125 L 134.34375,609.68750 L 125.68750,598.87500 C 131.45871,593.46501 134.68750,585.88995 134.68750,577.59375 L 134.65625,576.12500 L 134.53125,574.65625 L 134.37500,573.21875 L 134.09375,571.78125 L 133.78125,570.40625 L 133.40625,569.03125 L 132.93750,567.68750 L 132.40625,566.37500 L 131.84375,565.12500 L 131.18750,563.87500 L 130.50000,562.65625 L 129.75000,561.50000 L 128.93750,560.34375 L 128.09375,559.25000 L 127.18750,558.21875 L 126.21875,557.21875 L 125.21875,556.25000 L 124.15625,555.34375 L 123.06250,554.50000 L 121.93750,553.68750 L 120.78125,552.93750 L 119.56250,552.21875 L 118.31250,551.59375 L 117.03125,551.00000 L 115.71875,550.50000 L 114.40625,550.03125 L 113.03125,549.65625 L 111.62500,549.31250 L 110.21875,549.06250 L 108.78125,548.87500 L 107.31250,548.78125 L 105.84375,548.71875 z M 105.84375,555.93750 C 117.74742,555.93749 127.46875,565.69133 127.46875,577.59375 C 127.46875,589.49869 117.74742,599.25000 105.84375,599.25000 C 93.938823,599.25001 84.187500,589.49868 84.187500,577.59375 L 84.218750,576.46875 L 84.312500,575.37500 L 84.437500,574.31250 L 84.625000,573.25000 L 84.875000,572.18750 L 85.156250,571.18750 L 85.500000,570.15625 L 85.906250,569.18750 L 86.343750,568.21875 L 86.812500,567.31250 L 87.343750,566.37500 L 87.906250,565.50000 L 88.500000,564.65625 L 89.156250,563.84375 L 89.843750,563.06250 L 90.562500,562.31250 L 91.312500,561.59375 L 92.093750,560.90625 L 92.906250,560.25000 L 93.750000,559.65625 L 94.625000,559.09375 L 95.531250,558.56250 L 96.468750,558.09375 L 97.437500,557.65625 L 98.406250,557.25000 L 99.406250,556.93750 L 100.43750,556.62500 L 101.50000,556.37500 L 102.56250,556.18750 L 103.62500,556.06250 L 104.71875,555.96875 L 105.84375,555.93750 z " />
    <path
       id="path22"
       style="font-style:normal;font-variant:normal;font-weight:normal;font-stretch:normal;fill:#000000;fill-opacity:1.0000000;stroke:#000000;stroke-width:0.0000000;stroke-linecap:butt;stroke-linejoin:miter;stroke-miterlimit:10.433000;stroke-dashoffset:0.0000000;stroke-opacity:1.0000000;letter-spacing:normal;text-anchor:start"
       transform="scale(1.388889e-3,1.388889e-3)"
       d="M 199.62500,549.81250 L 199.62500,606.09375 L 221.62500,606.09375 C 240.38737,606.09377 251.56250,592.36616 251.56250,577.93750 L 251.53125,576.68750 L 251.46875,575.43750 L 251.34375,574.18750 L 251.15625,572.90625 L 250.90625,571.65625 L 250.59375,570.40625 L 250.25000,569.15625 L 249.84375,567.93750 L 249.37500,566.71875 L 248.84375,565.50000 L 248.25000,564.34375 L 247.62500,563.18750 L 246.90625,562.06250 L 246.15625,560.96875 L 245.34375,559.90625 L 244.43750,558.87500 L 243.50000,557.87500 L 242.50000,556.93750 L 241.43750,556.06250 L 240.28125,555.18750 L 239.09375,554.40625 L 237.84375,553.65625 L 236.53125,552.96875 L 235.12500,552.34375 L 233.68750,551.75000 L 232.15625,551.25000 L 230.59375,550.84375 L 228.90625,550.46875 L 227.21875,550.18750 L 225.40625,550.00000 L 223.56250,549.87500 L 221.62500,549.81250 L 199.62500,549.81250 z M 207.56250,556.65625 L 220.18750,556.65625 C 236.04990,556.65628 243.62500,566.39883 243.62500,577.93750 C 243.62500,585.15121 239.29363,599.25000 220.53125,599.25000 L 207.56250,599.25000 L 207.56250,556.65625 z " />
  </g>
</svg>
